<svg width="159" height="159" viewBox="0 0 159 159" fill="none" xmlns="http://www.w3.org/2000/svg">
    <rect width="159" height="159" rx="16" fill="#F4FAFF"/>
    <path d="M27 108.662H131C132.061 108.662 133.078 109.087 133.828 109.845C134.579 110.603 135 111.631 135 112.702C135 113.774 134.579 114.802 133.828 115.56C133.078 116.317 132.061 116.743 131 116.743H27C25.9391 116.743 24.9217 116.317 24.1716 115.56C23.4214 114.802 23 113.774 23 112.702C23 111.631 23.4214 110.603 24.1716 109.845C24.9217 109.087 25.9391 108.662 27 108.662Z" fill="url(#paint0_linear_222_117)"/>
    <path d="M30.1489 117.087H127.851C127.851 121.076 124.65 124.309 120.702 124.309H37.2979C33.3496 124.309 30.1489 121.076 30.1489 117.087Z" fill="url(#paint1_linear_222_117)"/>
    <path d="M63.9523 44.5694L63.9598 38.7304C63.9638 34.8223 65.552 31.0756 68.3756 28.3135C71.1991 25.5515 75.0269 24 79.018 24C87.3151 24 94.0386 30.5837 94.0386 38.7082V44.5547C106.164 48.0932 116.586 55.7833 123.401 66.2214C130.217 76.6595 139.261 99 130 102.5C125.362 104.253 102.145 103.827 79.003 104C55.9391 104.173 32.9495 104.952 28.5 102.5C19.5859 97.5882 27.784 76.6689 34.5965 66.2342C41.409 55.7996 51.825 48.1105 63.9448 44.5694H63.9523ZM33.8283 94.0392C33.8283 99.8483 61.3436 94.0392 79.003 94.0392C96.6624 94.0392 124.178 99.8483 124.178 94.0392C124.178 88.2302 123.009 82.478 120.739 77.1111C118.469 71.7442 115.141 66.8678 110.946 62.7601C106.751 58.6525 101.771 55.3942 96.2905 53.1711C90.8097 50.9481 84.9354 49.8039 79.003 49.8039C73.0705 49.8039 67.1962 50.9481 61.7154 53.1711C56.2345 55.3942 51.2545 58.6525 47.0597 62.7601C42.8648 66.8678 39.5373 71.7442 37.267 77.1111C34.9968 82.478 33.8283 88.2302 33.8283 94.0392ZM86.5095 42.4314C86.8593 41.0201 86.5095 38.7082 86.5095 38.7082C86.5095 36.7627 85.7202 34.8968 84.3153 33.5211C82.9104 32.1454 81.0049 31.3725 79.018 31.3725C77.0225 31.3725 75.1086 32.1483 73.6968 33.5293C72.285 34.9103 71.4909 36.7837 71.4889 38.7377C71.4889 38.7377 71.1445 41.0306 71.4889 42.4314C72.8896 48.1276 85.0982 48.125 86.5095 42.4314Z" fill="url(#paint2_linear_222_117)"/>
    <defs>
        <linearGradient id="paint0_linear_222_117" x1="23" y1="116.485" x2="135" y2="116.485" gradientUnits="userSpaceOnUse">
            <stop stop-color="#525DC0"/>
            <stop offset="1" stop-color="#8E54E9"/>
        </linearGradient>
        <linearGradient id="paint1_linear_222_117" x1="23" y1="116.485" x2="135" y2="116.485" gradientUnits="userSpaceOnUse">
            <stop stop-color="#525DC0"/>
            <stop offset="1" stop-color="#8E54E9"/>
        </linearGradient>
        <linearGradient id="paint2_linear_222_117" x1="26.2941" y1="62.7059" x2="131.706" y2="62.7059" gradientUnits="userSpaceOnUse">
            <stop stop-color="#525DC0"/>
            <stop offset="1" stop-color="#8E54E9"/>
        </linearGradient>
    </defs>
</svg>
